<mxfile host="app.diagrams.net" modified="2021-06-12T10:05:10.634Z" agent="5.0 (Windows NT 10.0; Win64; x64) AppleWebKit/537.36 (KHTML, like Gecko) Chrome/91.0.4472.101 Safari/537.36" etag="L5NQl7xdL4irGBAvFZ8G" version="14.7.7" type="github" pages="4">
  <diagram name="Лента" id="03018318-947c-dd8e-b7a3-06fadd420f32">
    <mxGraphModel dx="1422" dy="705" grid="1" gridSize="10" guides="1" tooltips="1" connect="1" arrows="1" fold="1" page="1" pageScale="1" pageWidth="1100" pageHeight="850" background="none" math="0" shadow="0">
      <root>
        <mxCell id="0" />
        <mxCell id="1" parent="0" />
        <mxCell id="677b7b8949515195-1" value="" style="whiteSpace=wrap;html=1;rounded=0;shadow=0;labelBackgroundColor=none;strokeColor=#6c8ebf;strokeWidth=1;fillColor=#dae8fc;fontFamily=Verdana;fontSize=12;align=center;comic=1;" parent="1" vertex="1">
          <mxGeometry x="20" y="20" width="1060" height="810" as="geometry" />
        </mxCell>
        <mxCell id="677b7b8949515195-2" value="Тут логотип" style="whiteSpace=wrap;html=1;rounded=0;shadow=0;labelBackgroundColor=none;strokeWidth=1;fontFamily=Verdana;fontSize=28;align=center;comic=1;strokeColor=#666666;fillColor=#f5f5f5;fontColor=#333333;" parent="1" vertex="1">
          <mxGeometry x="40" y="60" width="190" height="50" as="geometry" />
        </mxCell>
        <mxCell id="677b7b8949515195-3" value="Поиск по названию" style="strokeWidth=1;shadow=0;dashed=0;align=center;html=1;shape=mxgraph.mockup.forms.searchBox;strokeColor=#999999;mainText=;strokeColor2=#008cff;fontColor=#666666;fontSize=17;align=left;spacingLeft=3;rounded=0;labelBackgroundColor=none;comic=1;" parent="1" vertex="1">
          <mxGeometry x="840" y="95" width="220" height="30" as="geometry" />
        </mxCell>
        <mxCell id="677b7b8949515195-4" value="Выйти&lt;br&gt;" style="text;html=1;points=[];align=left;verticalAlign=top;spacingTop=-4;fontSize=14;fontFamily=Verdana;fillColor=#f8cecc;strokeColor=#b85450;" parent="1" vertex="1">
          <mxGeometry x="840" y="60" width="100" height="20" as="geometry" />
        </mxCell>
        <mxCell id="677b7b8949515195-6" value="Аккаунт&lt;br&gt;" style="text;html=1;points=[];align=left;verticalAlign=top;spacingTop=-4;fontSize=14;fontFamily=Verdana;fillColor=#f8cecc;strokeColor=#b85450;" parent="1" vertex="1">
          <mxGeometry x="960" y="60" width="100" height="20" as="geometry" />
        </mxCell>
        <mxCell id="677b7b8949515195-8" value="" style="whiteSpace=wrap;html=1;rounded=0;shadow=0;labelBackgroundColor=none;strokeWidth=1;fontFamily=Verdana;fontSize=12;align=center;comic=1;fillColor=#CDEB8B;" parent="1" vertex="1">
          <mxGeometry x="30" y="230" width="200" height="590" as="geometry" />
        </mxCell>
        <mxCell id="677b7b8949515195-9" value="" style="line;strokeWidth=1;html=1;rounded=0;shadow=0;labelBackgroundColor=none;fillColor=none;fontFamily=Verdana;fontSize=14;fontColor=#000000;align=center;comic=1;" parent="1" vertex="1">
          <mxGeometry x="20" y="140" width="1060" height="10" as="geometry" />
        </mxCell>
        <mxCell id="677b7b8949515195-10" value="" style="whiteSpace=wrap;html=1;rounded=0;shadow=0;labelBackgroundColor=none;strokeWidth=1;fillColor=none;fontFamily=Verdana;fontSize=12;align=center;comic=1;" parent="1" vertex="1">
          <mxGeometry x="20" y="160" width="1040" height="50" as="geometry" />
        </mxCell>
        <mxCell id="677b7b8949515195-11" value="Оформить поступление" style="text;html=1;points=[];align=left;verticalAlign=top;spacingTop=-4;fontSize=14;fontFamily=Verdana" parent="1" vertex="1">
          <mxGeometry x="40" y="175" width="60" height="20" as="geometry" />
        </mxCell>
        <mxCell id="677b7b8949515195-12" value="Section 2" style="text;html=1;points=[];align=left;verticalAlign=top;spacingTop=-4;fontSize=14;fontFamily=Verdana" parent="1" vertex="1">
          <mxGeometry x="477" y="175" width="60" height="20" as="geometry" />
        </mxCell>
        <mxCell id="677b7b8949515195-13" value="Section 3" style="text;html=1;points=[];align=left;verticalAlign=top;spacingTop=-4;fontSize=14;fontFamily=Verdana" parent="1" vertex="1">
          <mxGeometry x="623" y="175" width="60" height="20" as="geometry" />
        </mxCell>
        <mxCell id="677b7b8949515195-14" value="Section 4" style="text;html=1;points=[];align=left;verticalAlign=top;spacingTop=-4;fontSize=14;fontFamily=Verdana" parent="1" vertex="1">
          <mxGeometry x="770" y="175" width="60" height="20" as="geometry" />
        </mxCell>
        <mxCell id="677b7b8949515195-16" value="" style="verticalLabelPosition=bottom;shadow=0;align=center;html=1;verticalAlign=top;strokeWidth=1;shape=mxgraph.mockup.graphics.simpleIcon;rounded=0;labelBackgroundColor=none;fontFamily=Verdana;fontSize=14;comic=1;fillColor=#CDEB8B;sketch=0;strokeColor=#FFFFFF;" parent="1" vertex="1">
          <mxGeometry x="250" y="230" width="770" height="550" as="geometry" />
        </mxCell>
        <mxCell id="bsFYjEv8qvHQtlbClAbS-14" value="Овощи&lt;br&gt;" style="text;html=1;points=[];align=left;verticalAlign=top;spacingTop=-4;fontSize=14;fontFamily=Verdana;fillColor=#e1d5e7;strokeColor=#9673a6;" parent="1" vertex="1">
          <mxGeometry x="40" y="300" width="170" height="20" as="geometry" />
        </mxCell>
        <mxCell id="bsFYjEv8qvHQtlbClAbS-15" value="Фрукты&lt;br&gt;" style="text;html=1;points=[];align=left;verticalAlign=top;spacingTop=-4;fontSize=14;fontFamily=Verdana;fillColor=#e1d5e7;strokeColor=#9673a6;" parent="1" vertex="1">
          <mxGeometry x="40" y="340" width="170" height="20" as="geometry" />
        </mxCell>
        <mxCell id="bsFYjEv8qvHQtlbClAbS-16" value="Корм для животных&lt;br&gt;" style="text;html=1;points=[];align=left;verticalAlign=top;spacingTop=-4;fontSize=14;fontFamily=Verdana;fillColor=#e1d5e7;strokeColor=#9673a6;" parent="1" vertex="1">
          <mxGeometry x="40" y="500" width="170" height="20" as="geometry" />
        </mxCell>
        <mxCell id="bsFYjEv8qvHQtlbClAbS-17" value="Крупы" style="text;html=1;points=[];align=left;verticalAlign=top;spacingTop=-4;fontSize=14;fontFamily=Verdana;fillColor=#e1d5e7;strokeColor=#9673a6;" parent="1" vertex="1">
          <mxGeometry x="40" y="460" width="170" height="20" as="geometry" />
        </mxCell>
        <mxCell id="bsFYjEv8qvHQtlbClAbS-18" value="Мясо&lt;br&gt;&lt;span style=&quot;color: rgba(0 , 0 , 0 , 0) ; font-family: monospace ; font-size: 0px&quot;&gt;%3CmxGraphModel%3E%3Croot%3E%3CmxCell%20id%3D%220%22%2F%3E%3CmxCell%20id%3D%221%22%20parent%3D%220%22%2F%3E%3CmxCell%20id%3D%222%22%20value%3D%22%D0%9A%D1%80%D1%83%D0%BF%D1%8B%22%20style%3D%22text%3Bhtml%3D1%3Bpoints%3D%5B%5D%3Balign%3Dleft%3BverticalAlign%3Dtop%3BspacingTop%3D-4%3BfontSize%3D14%3BfontFamily%3DVerdana%3BfillColor%3D%23f5f5f5%3BstrokeColor%3D%23666666%3BfontColor%3D%23333333%3B%22%20vertex%3D%221%22%20parent%3D%221%22%3E%3CmxGeometry%20x%3D%2240%22%20y%3D%22420%22%20width%3D%22170%22%20height%3D%2220%22%20as%3D%22geometry%22%2F%3E%3C%2FmxCell%3E%3C%2Froot%3E%3C%2FmxGraphModel%3E&lt;/span&gt;" style="text;html=1;points=[];align=left;verticalAlign=top;spacingTop=-4;fontSize=14;fontFamily=Verdana;fillColor=#e1d5e7;strokeColor=#9673a6;" parent="1" vertex="1">
          <mxGeometry x="40" y="380" width="170" height="20" as="geometry" />
        </mxCell>
        <mxCell id="bsFYjEv8qvHQtlbClAbS-19" value="Рыба" style="text;html=1;points=[];align=left;verticalAlign=top;spacingTop=-4;fontSize=14;fontFamily=Verdana;fillColor=#e1d5e7;strokeColor=#9673a6;" parent="1" vertex="1">
          <mxGeometry x="40" y="420" width="170" height="20" as="geometry" />
        </mxCell>
        <mxCell id="bsFYjEv8qvHQtlbClAbS-42" value="" style="verticalLabelPosition=bottom;shadow=0;dashed=0;align=center;html=1;verticalAlign=top;strokeWidth=1;shape=mxgraph.mockup.misc.help_icon;sketch=0;perimeterSpacing=2;fillColor=#FFD966;strokeColor=#FFD966;" parent="1" vertex="1">
          <mxGeometry x="1038" y="788" width="32" height="32" as="geometry" />
        </mxCell>
        <mxCell id="bsFYjEv8qvHQtlbClAbS-46" value="Категории товаров" style="text;html=1;strokeColor=#d6b656;fillColor=#fff2cc;align=center;verticalAlign=middle;whiteSpace=wrap;rounded=0;shadow=0;sketch=0;" parent="1" vertex="1">
          <mxGeometry x="60" y="250" width="130" height="30" as="geometry" />
        </mxCell>
      </root>
    </mxGraphModel>
  </diagram>
  <diagram id="cKfzJZC89gKOgT8tLsJ9" name="Авторизация">
    <mxGraphModel dx="1422" dy="762" grid="1" gridSize="10" guides="1" tooltips="1" connect="1" arrows="1" fold="1" page="1" pageScale="1" pageWidth="827" pageHeight="1169" math="0" shadow="0">
      <root>
        <mxCell id="FZIjvQO95-9TN8dsoELv-0" />
        <mxCell id="FZIjvQO95-9TN8dsoELv-1" parent="FZIjvQO95-9TN8dsoELv-0" />
        <mxCell id="u1eT6FEsAYFS7mZz-7Zb-0" value="Авторизация" style="strokeWidth=1;shadow=0;dashed=0;align=center;html=1;shape=mxgraph.mockup.containers.window;align=left;verticalAlign=top;spacingLeft=8;strokeColor2=#008cff;strokeColor3=#c4c4c4;mainText=;fontSize=17;labelBackgroundColor=none;rounded=0;glass=0;sketch=0;fillColor=#dae8fc;strokeColor=#6c8ebf;" parent="FZIjvQO95-9TN8dsoELv-1" vertex="1">
          <mxGeometry x="160" y="45" width="490" height="340" as="geometry" />
        </mxCell>
        <mxCell id="u1eT6FEsAYFS7mZz-7Zb-1" style="edgeStyle=orthogonalEdgeStyle;rounded=0;orthogonalLoop=1;jettySize=auto;html=1;exitX=0.5;exitY=1;exitDx=0;exitDy=0;" parent="FZIjvQO95-9TN8dsoELv-1" edge="1">
          <mxGeometry relative="1" as="geometry">
            <mxPoint x="385" y="500" as="sourcePoint" />
            <mxPoint x="385" y="500" as="targetPoint" />
          </mxGeometry>
        </mxCell>
        <mxCell id="u1eT6FEsAYFS7mZz-7Zb-2" value="Войти" style="text;html=1;strokeColor=#d6b656;fillColor=#fff2cc;align=center;verticalAlign=middle;whiteSpace=wrap;rounded=0;shadow=0;sketch=0;" parent="FZIjvQO95-9TN8dsoELv-1" vertex="1">
          <mxGeometry x="340" y="270" width="130" height="40" as="geometry" />
        </mxCell>
        <mxCell id="u1eT6FEsAYFS7mZz-7Zb-3" value="Email" style="strokeWidth=1;shadow=0;dashed=0;align=center;html=1;shape=mxgraph.mockup.text.textBox;align=left;fontSize=17;spacingLeft=4;spacingTop=-3;strokeColor=#82b366;mainText=;sketch=0;fillColor=#d5e8d4;" parent="FZIjvQO95-9TN8dsoELv-1" vertex="1">
          <mxGeometry x="307.5" y="140" width="195" height="30" as="geometry" />
        </mxCell>
        <mxCell id="u1eT6FEsAYFS7mZz-7Zb-4" value="Pasword" style="strokeWidth=1;shadow=0;dashed=0;align=center;html=1;shape=mxgraph.mockup.text.textBox;align=left;fontSize=17;spacingLeft=4;spacingTop=-3;strokeColor=#82b366;mainText=;sketch=0;fillColor=#d5e8d4;" parent="FZIjvQO95-9TN8dsoELv-1" vertex="1">
          <mxGeometry x="307.5" y="200" width="195" height="30" as="geometry" />
        </mxCell>
        <mxCell id="u1eT6FEsAYFS7mZz-7Zb-5" value="Введите Email" style="text;html=1;strokeColor=none;fillColor=none;align=center;verticalAlign=middle;whiteSpace=wrap;rounded=0;shadow=1;glass=0;sketch=0;" parent="FZIjvQO95-9TN8dsoELv-1" vertex="1">
          <mxGeometry x="260" y="120" width="172.5" height="20" as="geometry" />
        </mxCell>
        <mxCell id="u1eT6FEsAYFS7mZz-7Zb-6" value="Введите пароль" style="text;html=1;strokeColor=none;fillColor=none;align=center;verticalAlign=middle;whiteSpace=wrap;rounded=0;shadow=1;glass=0;sketch=0;" parent="FZIjvQO95-9TN8dsoELv-1" vertex="1">
          <mxGeometry x="270" y="180" width="172.5" height="20" as="geometry" />
        </mxCell>
        <mxCell id="u1eT6FEsAYFS7mZz-7Zb-8" value="Регистрация" style="shape=rectangle;strokeColor=none;fillColor=none;linkText=;fontSize=17;fontColor=#0000ff;fontStyle=4;html=1;align=center;rounded=0;shadow=1;glass=0;sketch=0;" parent="FZIjvQO95-9TN8dsoELv-1" vertex="1">
          <mxGeometry x="330" y="310" width="150" height="30" as="geometry" />
        </mxCell>
      </root>
    </mxGraphModel>
  </diagram>
  <diagram id="cRrCyOBY3V2Ru67Cizaz" name="Регистрация">
    <mxGraphModel dx="1422" dy="1931" grid="1" gridSize="10" guides="1" tooltips="1" connect="1" arrows="1" fold="1" page="1" pageScale="1" pageWidth="827" pageHeight="1169" math="0" shadow="0">
      <root>
        <mxCell id="bIADFYKAm8kMS_sarbT5-0" />
        <mxCell id="bIADFYKAm8kMS_sarbT5-1" parent="bIADFYKAm8kMS_sarbT5-0" />
        <mxCell id="QPu_PnrcMn0uBYshkKfd-0" value="Регистрация" style="strokeWidth=1;shadow=0;dashed=0;align=center;html=1;shape=mxgraph.mockup.containers.window;align=left;verticalAlign=top;spacingLeft=8;strokeColor2=#008cff;strokeColor3=#c4c4c4;mainText=;fontSize=17;labelBackgroundColor=none;rounded=0;glass=0;sketch=0;fillColor=#dae8fc;strokeColor=#6c8ebf;" parent="bIADFYKAm8kMS_sarbT5-1" vertex="1">
          <mxGeometry x="160" y="-12.5" width="520" height="432.5" as="geometry" />
        </mxCell>
        <mxCell id="QPu_PnrcMn0uBYshkKfd-1" style="edgeStyle=orthogonalEdgeStyle;rounded=0;orthogonalLoop=1;jettySize=auto;html=1;exitX=0.5;exitY=1;exitDx=0;exitDy=0;" parent="bIADFYKAm8kMS_sarbT5-1" edge="1">
          <mxGeometry relative="1" as="geometry">
            <mxPoint x="385" y="500" as="sourcePoint" />
            <mxPoint x="385" y="500" as="targetPoint" />
          </mxGeometry>
        </mxCell>
        <mxCell id="QPu_PnrcMn0uBYshkKfd-2" value="Далее" style="text;html=1;strokeColor=#d6b656;fillColor=#fff2cc;align=center;verticalAlign=middle;whiteSpace=wrap;rounded=0;shadow=0;sketch=0;" parent="bIADFYKAm8kMS_sarbT5-1" vertex="1">
          <mxGeometry x="580" y="370" width="87.5" height="40" as="geometry" />
        </mxCell>
        <mxCell id="QPu_PnrcMn0uBYshkKfd-3" value="" style="strokeWidth=1;shadow=0;dashed=0;align=center;html=1;shape=mxgraph.mockup.text.textBox;align=left;fontSize=17;spacingLeft=4;spacingTop=-3;strokeColor=#82b366;mainText=;sketch=0;fillColor=#d5e8d4;" parent="bIADFYKAm8kMS_sarbT5-1" vertex="1">
          <mxGeometry x="322.5" y="60" width="195" height="30" as="geometry" />
        </mxCell>
        <mxCell id="QPu_PnrcMn0uBYshkKfd-4" value="" style="strokeWidth=1;shadow=0;dashed=0;align=center;html=1;shape=mxgraph.mockup.text.textBox;align=left;fontSize=17;spacingLeft=4;spacingTop=-3;strokeColor=#82b366;mainText=;sketch=0;fillColor=#d5e8d4;" parent="bIADFYKAm8kMS_sarbT5-1" vertex="1">
          <mxGeometry x="322.5" y="240" width="195" height="30" as="geometry" />
        </mxCell>
        <mxCell id="QPu_PnrcMn0uBYshkKfd-5" value="ФИО" style="text;html=1;strokeColor=none;fillColor=none;align=center;verticalAlign=middle;whiteSpace=wrap;rounded=0;shadow=1;glass=0;sketch=0;" parent="bIADFYKAm8kMS_sarbT5-1" vertex="1">
          <mxGeometry x="230" y="40" width="220" height="20" as="geometry" />
        </mxCell>
        <mxCell id="QPu_PnrcMn0uBYshkKfd-6" value="Введите пароль" style="text;html=1;strokeColor=none;fillColor=none;align=center;verticalAlign=middle;whiteSpace=wrap;rounded=0;shadow=1;glass=0;sketch=0;" parent="bIADFYKAm8kMS_sarbT5-1" vertex="1">
          <mxGeometry x="300" y="160" width="140" height="20" as="geometry" />
        </mxCell>
        <mxCell id="QPu_PnrcMn0uBYshkKfd-9" value="" style="strokeWidth=1;shadow=0;dashed=0;align=center;html=1;shape=mxgraph.mockup.text.textBox;align=left;fontSize=17;spacingLeft=4;spacingTop=-3;strokeColor=#82b366;mainText=;sketch=0;fillColor=#d5e8d4;" parent="bIADFYKAm8kMS_sarbT5-1" vertex="1">
          <mxGeometry x="322.5" y="120" width="195" height="30" as="geometry" />
        </mxCell>
        <mxCell id="QPu_PnrcMn0uBYshkKfd-10" value="" style="strokeWidth=1;shadow=0;dashed=0;align=center;html=1;shape=mxgraph.mockup.text.textBox;align=left;fontSize=17;spacingLeft=4;spacingTop=-3;strokeColor=#82b366;mainText=;sketch=0;fillColor=#d5e8d4;" parent="bIADFYKAm8kMS_sarbT5-1" vertex="1">
          <mxGeometry x="322.5" y="180" width="195" height="30" as="geometry" />
        </mxCell>
        <mxCell id="QPu_PnrcMn0uBYshkKfd-12" value="Повторите пароль" style="text;html=1;strokeColor=none;fillColor=none;align=center;verticalAlign=middle;whiteSpace=wrap;rounded=0;shadow=1;glass=0;sketch=0;" parent="bIADFYKAm8kMS_sarbT5-1" vertex="1">
          <mxGeometry x="300" y="220" width="150" height="20" as="geometry" />
        </mxCell>
        <mxCell id="QPu_PnrcMn0uBYshkKfd-13" value="Электронная почта" style="text;html=1;strokeColor=none;fillColor=none;align=center;verticalAlign=middle;whiteSpace=wrap;rounded=0;shadow=1;glass=0;sketch=0;" parent="bIADFYKAm8kMS_sarbT5-1" vertex="1">
          <mxGeometry x="270" y="100" width="215" height="20" as="geometry" />
        </mxCell>
        <mxCell id="QPu_PnrcMn0uBYshkKfd-14" value="Создать организацию" style="shape=ellipse;fillColor=#eeeeee;strokeColor=#999999;gradientColor=#cccccc;html=1;align=left;spacingLeft=4;fontSize=17;fontColor=#666666;labelPosition=right;shadow=0;rounded=0;glass=0;sketch=0;" parent="bIADFYKAm8kMS_sarbT5-1" vertex="1">
          <mxGeometry x="322.5" y="290" width="15" height="15" as="geometry" />
        </mxCell>
        <mxCell id="QPu_PnrcMn0uBYshkKfd-15" value="Назад" style="text;html=1;strokeColor=#d6b656;fillColor=#fff2cc;align=center;verticalAlign=middle;whiteSpace=wrap;rounded=0;shadow=0;sketch=0;" parent="bIADFYKAm8kMS_sarbT5-1" vertex="1">
          <mxGeometry x="172.5" y="370" width="87.5" height="40" as="geometry" />
        </mxCell>
        <mxCell id="QPu_PnrcMn0uBYshkKfd-16" value="Работник" style="shape=ellipse;fillColor=#eeeeee;strokeColor=#999999;gradientColor=#cccccc;html=1;align=left;spacingLeft=4;fontSize=17;fontColor=#666666;labelPosition=right;shadow=0;rounded=0;glass=0;sketch=0;" parent="bIADFYKAm8kMS_sarbT5-1" vertex="1">
          <mxGeometry x="322.5" y="330" width="15" height="15" as="geometry" />
        </mxCell>
        <mxCell id="QPu_PnrcMn0uBYshkKfd-20" value="" style="icon;html=1;image=data:image/png,iVBORw0KGgoAAAANSUhEUgAAAOEAAADhCAMAAAAJbSJIAAAAeFBMVEX///8AAADt7e309PT8/Pz39/dHR0c9PT3R0dHq6upMTEzV1dUrKyvf39/KysrCwsJqamqWlpYdHR1RUVEKCgpvb2+MjIy0tLSEhIRkZGSnp6cZGRni4uInJyeioqKSkpITExO8vLx8fHxYWFgwMDCFhYWkpKQ4ODiCR2hVAAAFVUlEQVR4nO2b12KrOBCGQXTTbYq7DYn3vP8bbkCogIGUs4DD/t8dJc6MZjRFEooCAAAAAAAAAAAAAAAAAAAAAAAAAAAAAAAAAAAAAAAAAAAAAAAAAAAAAAAAvxqdnN2gyIvAPRN9aWH+Y5zidrAu2+3pdL8n9/vptN1erOhWOEsL9vcYGglLTx3GK0OiGUuL+VPIOdz/GdGO8WcfnrWlhf0+xM7LyxfUo1zK3CZLi/wt/Lx8/7J6lPcy95cW+8u4t7dvqkd5i92lRf8SQWr9SL8KKw2WFv9TQnM7rkQy/nhrhkurMIZ2HFbv7kW5S0Om5uaRdx9W8viqkfV8PcmCehuLa5HsyrBdxuhhuePmvFubVtw9Xc8L6TAGKUxZyN0jz3f8Iu6zihaLF/J8v5H/3CxeLXnoQSqbrzz6is1ENuOhNODHbFQ2tuIeWwk0DV6qdnUzqTS7ZMGHyWwmfDqWAlw2MObHWyR4SPPYy14nd2hXyUGT2K9c0mUpYz/ubmTfvGdVhtbcTHbV64uEnNCUMkCmUediNr1+5mv6ldmsvjTIQxqtl0gd+kGSaM8GnYn5FQlDNjjNtVZKdjwsPRv1QEzAS8ojitvkjWv7bYM4FaTTLjVWPPF550Yi5njLRhwSi8QdFfy20dh1Lwtn+EFmVuPhmVngy0rqzVw8iJtFxH/3Hi+YOAIhhykXIkdqwkgWzb3J5ap1kwMloRF1exS3tKOIXtFSxap+5TInD1lgn2Zyyxa3tLhVD1RDIlcBLn26kxOn++ABzPo0Xk2CE3EJNkUrrB/p3ViIRQ7qMwfJxDG9dZR/Rit4mZNECyzp2KLKerQnipN2DeJ3DdiYUXqDmj1tKyJljo2tzEzOo13SzQhBXZgkMb9B+hX8UFEMTVw7xKk740LuJ5d8OmV6MGIxuN26Q6dOuuOBUetz0cZR+R9r1Ij/dCecJlwlnnFNzmGl1kfx+BQDHCpryW/E6jDC0DTNb57mmy5K3v1sk9HlSWJTPAc5u35y577rDvlo7ac8Boc0sz5PN10EnGimWpx3Db1tQ1Nnekx14zaioKremOvp1FRxT17gDYhqzhJvAq7gta/YMKg4B3btj69LWTyeUsdI+yYbYdW5as6Q/EMusd2bhg06DXlmC0YVVFUucl5fPgWuGt3mIzJ5txGyeZ8MNO7ae0twI3vSqU3GjObWl95AS+iz972JVcxZftoNxTWNPmePB3Mhg+fE5g+Hml6HxZtk0sTIWrkkHQzchL7BBRvbeaptwn+JXg82Ek7KRndCK2rNav0lG25o/I6GnygorN1oOJwQnKxZxXmbbnGDNI3tZmQ5M/yxhslnBvIbRz1N1zAKGw5XF7/bhuufh1IsfS4gG355LJXyobrSfCjXNEFvNzNJTWPwX5m+ppHr0rjPU6eoSx3egM1Rly7RW/BubZ7eovUf5+gPc/4Dc/WHM/f4D74iNF+P31qnMaddp5GyzZzrNMp8a2383ZnX2pR51kvFbFhgvXSWNW8+MIuseU++b2ELAy60b6GM7D3RJuCv9p6uL7D3pEy4f5i/yP5hZw9YJOS/3gMWZzIW3gNW2vv4aslclXUUv38fv6J1FuPRGGhFZzGUznkaNavP5/lrOk+jdM5EbR8BkQruNZyJUrrn2i7l0V3ZuTbl6WziZr+ys4kVnfOll7WdL61Y+xnhmpWf865Z+1n9irV/b1Gx9m9mKtb+3VPNyr9doxgaKdIxU17S4hd/fyg459nzN6SHLH/VvP5T1vwdMAAAAAAAAAAAAAAAAAAAAAAAAAAAAAAAAAAAAAAAAAAAAAAAAAAAAAAA4H/Hv5fuVIRlvM8cAAAAAElFTkSuQmCC;rounded=0;shadow=0;glass=0;sketch=0;imageWidth=26;imageHeight=26;arcSize=11;absoluteArcSize=0;fillColor=none;strokeColor=none;" parent="bIADFYKAm8kMS_sarbT5-1" vertex="1">
          <mxGeometry x="480" y="185" width="50" height="20" as="geometry" />
        </mxCell>
        <mxCell id="QPu_PnrcMn0uBYshkKfd-22" value="" style="icon;html=1;image=data:image/png,iVBORw0KGgoAAAANSUhEUgAAAOEAAADhCAMAAAAJbSJIAAAAeFBMVEX///8AAADt7e309PT8/Pz39/dHR0c9PT3R0dHq6upMTEzV1dUrKyvf39/KysrCwsJqamqWlpYdHR1RUVEKCgpvb2+MjIy0tLSEhIRkZGSnp6cZGRni4uInJyeioqKSkpITExO8vLx8fHxYWFgwMDCFhYWkpKQ4ODiCR2hVAAAFVUlEQVR4nO2b12KrOBCGQXTTbYq7DYn3vP8bbkCogIGUs4DD/t8dJc6MZjRFEooCAAAAAAAAAAAAAAAAAAAAAAAAAAAAAAAAAAAAAAAAAAAAAAAAAAAAAAAAvxqdnN2gyIvAPRN9aWH+Y5zidrAu2+3pdL8n9/vptN1erOhWOEsL9vcYGglLTx3GK0OiGUuL+VPIOdz/GdGO8WcfnrWlhf0+xM7LyxfUo1zK3CZLi/wt/Lx8/7J6lPcy95cW+8u4t7dvqkd5i92lRf8SQWr9SL8KKw2WFv9TQnM7rkQy/nhrhkurMIZ2HFbv7kW5S0Om5uaRdx9W8viqkfV8PcmCehuLa5HsyrBdxuhhuePmvFubVtw9Xc8L6TAGKUxZyN0jz3f8Iu6zihaLF/J8v5H/3CxeLXnoQSqbrzz6is1ENuOhNODHbFQ2tuIeWwk0DV6qdnUzqTS7ZMGHyWwmfDqWAlw2MObHWyR4SPPYy14nd2hXyUGT2K9c0mUpYz/ubmTfvGdVhtbcTHbV64uEnNCUMkCmUediNr1+5mv6ldmsvjTIQxqtl0gd+kGSaM8GnYn5FQlDNjjNtVZKdjwsPRv1QEzAS8ojitvkjWv7bYM4FaTTLjVWPPF550Yi5njLRhwSi8QdFfy20dh1Lwtn+EFmVuPhmVngy0rqzVw8iJtFxH/3Hi+YOAIhhykXIkdqwkgWzb3J5ap1kwMloRF1exS3tKOIXtFSxap+5TInD1lgn2Zyyxa3tLhVD1RDIlcBLn26kxOn++ABzPo0Xk2CE3EJNkUrrB/p3ViIRQ7qMwfJxDG9dZR/Rit4mZNECyzp2KLKerQnipN2DeJ3DdiYUXqDmj1tKyJljo2tzEzOo13SzQhBXZgkMb9B+hX8UFEMTVw7xKk740LuJ5d8OmV6MGIxuN26Q6dOuuOBUetz0cZR+R9r1Ij/dCecJlwlnnFNzmGl1kfx+BQDHCpryW/E6jDC0DTNb57mmy5K3v1sk9HlSWJTPAc5u35y577rDvlo7ac8Boc0sz5PN10EnGimWpx3Db1tQ1Nnekx14zaioKremOvp1FRxT17gDYhqzhJvAq7gta/YMKg4B3btj69LWTyeUsdI+yYbYdW5as6Q/EMusd2bhg06DXlmC0YVVFUucl5fPgWuGt3mIzJ5txGyeZ8MNO7ae0twI3vSqU3GjObWl95AS+iz972JVcxZftoNxTWNPmePB3Mhg+fE5g+Hml6HxZtk0sTIWrkkHQzchL7BBRvbeaptwn+JXg82Ek7KRndCK2rNav0lG25o/I6GnygorN1oOJwQnKxZxXmbbnGDNI3tZmQ5M/yxhslnBvIbRz1N1zAKGw5XF7/bhuufh1IsfS4gG355LJXyobrSfCjXNEFvNzNJTWPwX5m+ppHr0rjPU6eoSx3egM1Rly7RW/BubZ7eovUf5+gPc/4Dc/WHM/f4D74iNF+P31qnMaddp5GyzZzrNMp8a2383ZnX2pR51kvFbFhgvXSWNW8+MIuseU++b2ELAy60b6GM7D3RJuCv9p6uL7D3pEy4f5i/yP5hZw9YJOS/3gMWZzIW3gNW2vv4aslclXUUv38fv6J1FuPRGGhFZzGUznkaNavP5/lrOk+jdM5EbR8BkQruNZyJUrrn2i7l0V3ZuTbl6WziZr+ys4kVnfOll7WdL61Y+xnhmpWf865Z+1n9irV/b1Gx9m9mKtb+3VPNyr9doxgaKdIxU17S4hd/fyg459nzN6SHLH/VvP5T1vwdMAAAAAAAAAAAAAAAAAAAAAAAAAAAAAAAAAAAAAAAAAAAAAAAAAAAAAAA4H/Hv5fuVIRlvM8cAAAAAElFTkSuQmCC;rounded=0;shadow=0;glass=0;sketch=0;imageWidth=26;imageHeight=26;arcSize=11;absoluteArcSize=0;fillColor=none;strokeColor=none;" parent="bIADFYKAm8kMS_sarbT5-1" vertex="1">
          <mxGeometry x="480" y="245" width="50" height="20" as="geometry" />
        </mxCell>
      </root>
    </mxGraphModel>
  </diagram>
  <diagram id="jZ1OBV-yWQsQ1QfnR5Q0" name="Main">
    <mxGraphModel dx="2500" dy="1998" grid="1" gridSize="10" guides="1" tooltips="1" connect="1" arrows="1" fold="1" page="1" pageScale="1" pageWidth="827" pageHeight="1169" math="0" shadow="0">
      <root>
        <mxCell id="_qShVizZ1u9_w7oZcHcB-0" />
        <mxCell id="_qShVizZ1u9_w7oZcHcB-1" parent="_qShVizZ1u9_w7oZcHcB-0" />
        <mxCell id="_qShVizZ1u9_w7oZcHcB-2" value="" style="whiteSpace=wrap;html=1;rounded=0;shadow=0;labelBackgroundColor=none;strokeColor=#6c8ebf;strokeWidth=1;fillColor=#dae8fc;fontFamily=Verdana;fontSize=12;align=center;comic=1;" parent="_qShVizZ1u9_w7oZcHcB-1" vertex="1">
          <mxGeometry x="690" y="320" width="1060" height="810" as="geometry" />
        </mxCell>
        <mxCell id="_qShVizZ1u9_w7oZcHcB-3" value="Тут логотип" style="whiteSpace=wrap;html=1;rounded=0;shadow=0;labelBackgroundColor=none;strokeWidth=1;fontFamily=Verdana;fontSize=28;align=center;comic=1;strokeColor=#666666;fillColor=#f5f5f5;fontColor=#333333;" parent="_qShVizZ1u9_w7oZcHcB-1" vertex="1">
          <mxGeometry x="700" y="330" width="170" height="110" as="geometry" />
        </mxCell>
        <mxCell id="_qShVizZ1u9_w7oZcHcB-4" value="Поиск по названию" style="strokeWidth=1;shadow=0;dashed=0;align=center;html=1;shape=mxgraph.mockup.forms.searchBox;strokeColor=#999999;mainText=;strokeColor2=#008cff;fontColor=#666666;fontSize=17;align=left;spacingLeft=3;rounded=0;labelBackgroundColor=none;comic=1;" parent="_qShVizZ1u9_w7oZcHcB-1" vertex="1">
          <mxGeometry x="1510" y="395" width="220" height="30" as="geometry" />
        </mxCell>
        <mxCell id="_qShVizZ1u9_w7oZcHcB-5" value="Выйти&lt;br&gt;" style="text;html=1;points=[];align=left;verticalAlign=top;spacingTop=-4;fontSize=14;fontFamily=Verdana;fillColor=#f8cecc;strokeColor=#b85450;" parent="_qShVizZ1u9_w7oZcHcB-1" vertex="1">
          <mxGeometry x="1510" y="360" width="100" height="20" as="geometry" />
        </mxCell>
        <mxCell id="_qShVizZ1u9_w7oZcHcB-6" value="Аккаунт&lt;br&gt;" style="text;html=1;points=[];align=left;verticalAlign=top;spacingTop=-4;fontSize=14;fontFamily=Verdana;fillColor=#f8cecc;strokeColor=#b85450;" parent="_qShVizZ1u9_w7oZcHcB-1" vertex="1">
          <mxGeometry x="1630" y="360" width="100" height="20" as="geometry" />
        </mxCell>
        <mxCell id="_qShVizZ1u9_w7oZcHcB-7" value="" style="whiteSpace=wrap;html=1;rounded=0;shadow=0;labelBackgroundColor=none;strokeWidth=1;fontFamily=Verdana;fontSize=12;align=center;comic=1;fillColor=#CDEB8B;" parent="_qShVizZ1u9_w7oZcHcB-1" vertex="1">
          <mxGeometry x="700" y="530" width="200" height="590" as="geometry" />
        </mxCell>
        <mxCell id="_qShVizZ1u9_w7oZcHcB-8" value="" style="line;strokeWidth=1;html=1;rounded=0;shadow=0;labelBackgroundColor=none;fillColor=none;fontFamily=Verdana;fontSize=14;fontColor=#000000;align=center;comic=1;" parent="_qShVizZ1u9_w7oZcHcB-1" vertex="1">
          <mxGeometry x="690" y="450" width="1060" height="10" as="geometry" />
        </mxCell>
        <mxCell id="_qShVizZ1u9_w7oZcHcB-9" value="" style="whiteSpace=wrap;html=1;rounded=0;shadow=0;labelBackgroundColor=none;strokeWidth=1;fillColor=none;fontFamily=Verdana;fontSize=12;align=center;comic=1;" parent="_qShVizZ1u9_w7oZcHcB-1" vertex="1">
          <mxGeometry x="690" y="470" width="1040" height="50" as="geometry" />
        </mxCell>
        <mxCell id="_qShVizZ1u9_w7oZcHcB-10" value="Оформить поступление" style="text;html=1;points=[];align=left;verticalAlign=top;spacingTop=-4;fontSize=14;fontFamily=Verdana" parent="_qShVizZ1u9_w7oZcHcB-1" vertex="1">
          <mxGeometry x="710" y="485" width="60" height="20" as="geometry" />
        </mxCell>
        <mxCell id="_qShVizZ1u9_w7oZcHcB-11" value="Section 2" style="text;html=1;points=[];align=left;verticalAlign=top;spacingTop=-4;fontSize=14;fontFamily=Verdana" parent="_qShVizZ1u9_w7oZcHcB-1" vertex="1">
          <mxGeometry x="1147" y="485" width="60" height="20" as="geometry" />
        </mxCell>
        <mxCell id="_qShVizZ1u9_w7oZcHcB-12" value="Section 3" style="text;html=1;points=[];align=left;verticalAlign=top;spacingTop=-4;fontSize=14;fontFamily=Verdana" parent="_qShVizZ1u9_w7oZcHcB-1" vertex="1">
          <mxGeometry x="1293" y="485" width="60" height="20" as="geometry" />
        </mxCell>
        <mxCell id="_qShVizZ1u9_w7oZcHcB-13" value="Section 4" style="text;html=1;points=[];align=left;verticalAlign=top;spacingTop=-4;fontSize=14;fontFamily=Verdana" parent="_qShVizZ1u9_w7oZcHcB-1" vertex="1">
          <mxGeometry x="1440" y="485" width="60" height="20" as="geometry" />
        </mxCell>
        <mxCell id="_qShVizZ1u9_w7oZcHcB-14" value="" style="verticalLabelPosition=bottom;shadow=0;align=center;html=1;verticalAlign=top;strokeWidth=1;shape=mxgraph.mockup.graphics.simpleIcon;rounded=0;labelBackgroundColor=none;fontFamily=Verdana;fontSize=14;comic=1;fillColor=#CDEB8B;sketch=0;strokeColor=#FFFFFF;" parent="_qShVizZ1u9_w7oZcHcB-1" vertex="1">
          <mxGeometry x="920" y="530" width="800" height="570" as="geometry" />
        </mxCell>
        <mxCell id="_qShVizZ1u9_w7oZcHcB-15" value="Овощи&lt;br&gt;" style="text;html=1;points=[];align=left;verticalAlign=top;spacingTop=-4;fontSize=14;fontFamily=Verdana;fillColor=#e1d5e7;strokeColor=#9673a6;" parent="_qShVizZ1u9_w7oZcHcB-1" vertex="1">
          <mxGeometry x="710" y="660" width="170" height="20" as="geometry" />
        </mxCell>
        <mxCell id="_qShVizZ1u9_w7oZcHcB-16" value="Фрукты&lt;br&gt;" style="text;html=1;points=[];align=left;verticalAlign=top;spacingTop=-4;fontSize=14;fontFamily=Verdana;fillColor=#e1d5e7;strokeColor=#9673a6;" parent="_qShVizZ1u9_w7oZcHcB-1" vertex="1">
          <mxGeometry x="710" y="700" width="170" height="20" as="geometry" />
        </mxCell>
        <mxCell id="_qShVizZ1u9_w7oZcHcB-17" value="Корм для животных&lt;br&gt;" style="text;html=1;points=[];align=left;verticalAlign=top;spacingTop=-4;fontSize=14;fontFamily=Verdana;fillColor=#e1d5e7;strokeColor=#9673a6;" parent="_qShVizZ1u9_w7oZcHcB-1" vertex="1">
          <mxGeometry x="710" y="620" width="170" height="20" as="geometry" />
        </mxCell>
        <mxCell id="_qShVizZ1u9_w7oZcHcB-18" value="Крупы" style="text;html=1;points=[];align=left;verticalAlign=top;spacingTop=-4;fontSize=14;fontFamily=Verdana;fillColor=#e1d5e7;strokeColor=#9673a6;" parent="_qShVizZ1u9_w7oZcHcB-1" vertex="1">
          <mxGeometry x="710" y="600" width="170" height="20" as="geometry" />
        </mxCell>
        <mxCell id="_qShVizZ1u9_w7oZcHcB-19" value="Мясо&lt;br&gt;&lt;span style=&quot;color: rgba(0 , 0 , 0 , 0) ; font-family: monospace ; font-size: 0px&quot;&gt;%3CmxGraphModel%3E%3Croot%3E%3CmxCell%20id%3D%220%22%2F%3E%3CmxCell%20id%3D%221%22%20parent%3D%220%22%2F%3E%3CmxCell%20id%3D%222%22%20value%3D%22%D0%9A%D1%80%D1%83%D0%BF%D1%8B%22%20style%3D%22text%3Bhtml%3D1%3Bpoints%3D%5B%5D%3Balign%3Dleft%3BverticalAlign%3Dtop%3BspacingTop%3D-4%3BfontSize%3D14%3BfontFamily%3DVerdana%3BfillColor%3D%23f5f5f5%3BstrokeColor%3D%23666666%3BfontColor%3D%23333333%3B%22%20vertex%3D%221%22%20parent%3D%221%22%3E%3CmxGeometry%20x%3D%2240%22%20y%3D%22420%22%20width%3D%22170%22%20height%3D%2220%22%20as%3D%22geometry%22%2F%3E%3C%2FmxCell%3E%3C%2Froot%3E%3C%2FmxGraphModel%3E&lt;/span&gt;" style="text;html=1;points=[];align=left;verticalAlign=top;spacingTop=-4;fontSize=14;fontFamily=Verdana;fillColor=#e1d5e7;strokeColor=#9673a6;" parent="_qShVizZ1u9_w7oZcHcB-1" vertex="1">
          <mxGeometry x="710" y="640" width="170" height="20" as="geometry" />
        </mxCell>
        <mxCell id="_qShVizZ1u9_w7oZcHcB-20" value="Рыба" style="text;html=1;points=[];align=left;verticalAlign=top;spacingTop=-4;fontSize=14;fontFamily=Verdana;fillColor=#e1d5e7;strokeColor=#9673a6;" parent="_qShVizZ1u9_w7oZcHcB-1" vertex="1">
          <mxGeometry x="710" y="680" width="170" height="20" as="geometry" />
        </mxCell>
        <mxCell id="_qShVizZ1u9_w7oZcHcB-21" value="" style="verticalLabelPosition=bottom;shadow=0;dashed=0;align=center;html=1;verticalAlign=top;strokeWidth=1;shape=mxgraph.mockup.misc.help_icon;sketch=0;perimeterSpacing=2;fillColor=#FFD966;strokeColor=#FFD966;" parent="_qShVizZ1u9_w7oZcHcB-1" vertex="1">
          <mxGeometry x="1718" y="1098" width="32" height="32" as="geometry" />
        </mxCell>
        <mxCell id="_qShVizZ1u9_w7oZcHcB-22" value="Категории товаров" style="text;html=1;strokeColor=#d6b656;fillColor=#fff2cc;align=center;verticalAlign=middle;whiteSpace=wrap;rounded=0;shadow=0;sketch=0;" parent="_qShVizZ1u9_w7oZcHcB-1" vertex="1">
          <mxGeometry x="730" y="550" width="130" height="30" as="geometry" />
        </mxCell>
        <mxCell id="q81TEAvMw46rpjZFN7cc-0" value="Авторизация" style="strokeWidth=1;shadow=0;dashed=0;align=center;html=1;shape=mxgraph.mockup.containers.window;align=left;verticalAlign=top;spacingLeft=8;strokeColor2=#008cff;strokeColor3=#c4c4c4;mainText=;fontSize=17;labelBackgroundColor=none;rounded=0;glass=0;sketch=0;fillColor=#dae8fc;strokeColor=#6c8ebf;" parent="_qShVizZ1u9_w7oZcHcB-1" vertex="1">
          <mxGeometry x="-340" y="-470" width="490" height="340" as="geometry" />
        </mxCell>
        <mxCell id="q81TEAvMw46rpjZFN7cc-1" style="edgeStyle=orthogonalEdgeStyle;rounded=0;orthogonalLoop=1;jettySize=auto;html=1;exitX=0.5;exitY=1;exitDx=0;exitDy=0;" parent="_qShVizZ1u9_w7oZcHcB-1" edge="1">
          <mxGeometry relative="1" as="geometry">
            <mxPoint x="-115" y="-15" as="sourcePoint" />
            <mxPoint x="-115" y="-15" as="targetPoint" />
          </mxGeometry>
        </mxCell>
        <mxCell id="q81TEAvMw46rpjZFN7cc-2" value="Войти" style="text;html=1;strokeColor=#d6b656;fillColor=#fff2cc;align=center;verticalAlign=middle;whiteSpace=wrap;rounded=0;shadow=0;sketch=0;" parent="_qShVizZ1u9_w7oZcHcB-1" vertex="1">
          <mxGeometry x="-160" y="-245" width="130" height="40" as="geometry" />
        </mxCell>
        <mxCell id="q81TEAvMw46rpjZFN7cc-3" value="Email" style="strokeWidth=1;shadow=0;dashed=0;align=center;html=1;shape=mxgraph.mockup.text.textBox;align=left;fontSize=17;spacingLeft=4;spacingTop=-3;strokeColor=#82b366;mainText=;sketch=0;fillColor=#d5e8d4;" parent="_qShVizZ1u9_w7oZcHcB-1" vertex="1">
          <mxGeometry x="-192.5" y="-375" width="195" height="30" as="geometry" />
        </mxCell>
        <mxCell id="q81TEAvMw46rpjZFN7cc-4" value="Pasword" style="strokeWidth=1;shadow=0;dashed=0;align=center;html=1;shape=mxgraph.mockup.text.textBox;align=left;fontSize=17;spacingLeft=4;spacingTop=-3;strokeColor=#82b366;mainText=;sketch=0;fillColor=#d5e8d4;" parent="_qShVizZ1u9_w7oZcHcB-1" vertex="1">
          <mxGeometry x="-192.5" y="-315" width="195" height="30" as="geometry" />
        </mxCell>
        <mxCell id="q81TEAvMw46rpjZFN7cc-5" value="Введите Email" style="text;html=1;strokeColor=none;fillColor=none;align=center;verticalAlign=middle;whiteSpace=wrap;rounded=0;shadow=1;glass=0;sketch=0;" parent="_qShVizZ1u9_w7oZcHcB-1" vertex="1">
          <mxGeometry x="-240" y="-395" width="172.5" height="20" as="geometry" />
        </mxCell>
        <mxCell id="q81TEAvMw46rpjZFN7cc-6" value="Введите пароль" style="text;html=1;strokeColor=none;fillColor=none;align=center;verticalAlign=middle;whiteSpace=wrap;rounded=0;shadow=1;glass=0;sketch=0;" parent="_qShVizZ1u9_w7oZcHcB-1" vertex="1">
          <mxGeometry x="-230" y="-335" width="172.5" height="20" as="geometry" />
        </mxCell>
        <mxCell id="q81TEAvMw46rpjZFN7cc-7" value="Регистрация" style="shape=rectangle;strokeColor=none;fillColor=none;linkText=;fontSize=17;fontColor=#0000ff;fontStyle=4;html=1;align=center;rounded=0;shadow=1;glass=0;sketch=0;" parent="_qShVizZ1u9_w7oZcHcB-1" vertex="1">
          <mxGeometry x="-150" y="-205" width="110" height="30" as="geometry" />
        </mxCell>
        <mxCell id="oIc1xfMcri30EXBQYezS-0" value="Регистрация" style="strokeWidth=1;shadow=0;dashed=0;align=center;html=1;shape=mxgraph.mockup.containers.window;align=left;verticalAlign=top;spacingLeft=8;strokeColor2=#008cff;strokeColor3=#c4c4c4;mainText=;fontSize=17;labelBackgroundColor=none;rounded=0;glass=0;sketch=0;fillColor=#dae8fc;strokeColor=#6c8ebf;" parent="_qShVizZ1u9_w7oZcHcB-1" vertex="1">
          <mxGeometry x="390" y="-470" width="520" height="432.5" as="geometry" />
        </mxCell>
        <mxCell id="oIc1xfMcri30EXBQYezS-1" style="edgeStyle=orthogonalEdgeStyle;rounded=0;orthogonalLoop=1;jettySize=auto;html=1;exitX=0.5;exitY=1;exitDx=0;exitDy=0;" parent="_qShVizZ1u9_w7oZcHcB-1" edge="1">
          <mxGeometry relative="1" as="geometry">
            <mxPoint x="615" y="42.5" as="sourcePoint" />
            <mxPoint x="615" y="42.5" as="targetPoint" />
          </mxGeometry>
        </mxCell>
        <mxCell id="oIc1xfMcri30EXBQYezS-2" value="Далее" style="text;html=1;strokeColor=#d6b656;fillColor=#fff2cc;align=center;verticalAlign=middle;whiteSpace=wrap;rounded=0;shadow=0;sketch=0;" parent="_qShVizZ1u9_w7oZcHcB-1" vertex="1">
          <mxGeometry x="810" y="-87.5" width="87.5" height="40" as="geometry" />
        </mxCell>
        <mxCell id="oIc1xfMcri30EXBQYezS-3" value="" style="strokeWidth=1;shadow=0;dashed=0;align=center;html=1;shape=mxgraph.mockup.text.textBox;align=left;fontSize=17;spacingLeft=4;spacingTop=-3;strokeColor=#82b366;mainText=;sketch=0;fillColor=#d5e8d4;" parent="_qShVizZ1u9_w7oZcHcB-1" vertex="1">
          <mxGeometry x="552.5" y="-397.5" width="195" height="30" as="geometry" />
        </mxCell>
        <mxCell id="oIc1xfMcri30EXBQYezS-4" value="" style="strokeWidth=1;shadow=0;dashed=0;align=center;html=1;shape=mxgraph.mockup.text.textBox;align=left;fontSize=17;spacingLeft=4;spacingTop=-3;strokeColor=#82b366;mainText=;sketch=0;fillColor=#d5e8d4;" parent="_qShVizZ1u9_w7oZcHcB-1" vertex="1">
          <mxGeometry x="552.5" y="-217.5" width="195" height="30" as="geometry" />
        </mxCell>
        <mxCell id="oIc1xfMcri30EXBQYezS-5" value="ФИО" style="text;html=1;strokeColor=none;fillColor=none;align=center;verticalAlign=middle;whiteSpace=wrap;rounded=0;shadow=1;glass=0;sketch=0;" parent="_qShVizZ1u9_w7oZcHcB-1" vertex="1">
          <mxGeometry x="460" y="-417.5" width="220" height="20" as="geometry" />
        </mxCell>
        <mxCell id="oIc1xfMcri30EXBQYezS-6" value="Введите пароль" style="text;html=1;strokeColor=none;fillColor=none;align=center;verticalAlign=middle;whiteSpace=wrap;rounded=0;shadow=1;glass=0;sketch=0;" parent="_qShVizZ1u9_w7oZcHcB-1" vertex="1">
          <mxGeometry x="530" y="-297.5" width="140" height="20" as="geometry" />
        </mxCell>
        <mxCell id="oIc1xfMcri30EXBQYezS-7" value="" style="strokeWidth=1;shadow=0;dashed=0;align=center;html=1;shape=mxgraph.mockup.text.textBox;align=left;fontSize=17;spacingLeft=4;spacingTop=-3;strokeColor=#82b366;mainText=;sketch=0;fillColor=#d5e8d4;" parent="_qShVizZ1u9_w7oZcHcB-1" vertex="1">
          <mxGeometry x="552.5" y="-337.5" width="195" height="30" as="geometry" />
        </mxCell>
        <mxCell id="oIc1xfMcri30EXBQYezS-8" value="" style="strokeWidth=1;shadow=0;dashed=0;align=center;html=1;shape=mxgraph.mockup.text.textBox;align=left;fontSize=17;spacingLeft=4;spacingTop=-3;strokeColor=#82b366;mainText=;sketch=0;fillColor=#d5e8d4;" parent="_qShVizZ1u9_w7oZcHcB-1" vertex="1">
          <mxGeometry x="552.5" y="-277.5" width="195" height="30" as="geometry" />
        </mxCell>
        <mxCell id="oIc1xfMcri30EXBQYezS-9" value="Повторите пароль" style="text;html=1;strokeColor=none;fillColor=none;align=center;verticalAlign=middle;whiteSpace=wrap;rounded=0;shadow=1;glass=0;sketch=0;" parent="_qShVizZ1u9_w7oZcHcB-1" vertex="1">
          <mxGeometry x="530" y="-237.5" width="150" height="20" as="geometry" />
        </mxCell>
        <mxCell id="oIc1xfMcri30EXBQYezS-10" value="Электронная почта" style="text;html=1;strokeColor=none;fillColor=none;align=center;verticalAlign=middle;whiteSpace=wrap;rounded=0;shadow=1;glass=0;sketch=0;" parent="_qShVizZ1u9_w7oZcHcB-1" vertex="1">
          <mxGeometry x="500" y="-357.5" width="215" height="20" as="geometry" />
        </mxCell>
        <mxCell id="oIc1xfMcri30EXBQYezS-11" value="Создать организацию" style="shape=ellipse;fillColor=#eeeeee;strokeColor=#999999;gradientColor=#cccccc;html=1;align=left;spacingLeft=4;fontSize=17;fontColor=#666666;labelPosition=right;shadow=0;rounded=0;glass=0;sketch=0;" parent="_qShVizZ1u9_w7oZcHcB-1" vertex="1">
          <mxGeometry x="552.5" y="-167.5" width="15" height="15" as="geometry" />
        </mxCell>
        <mxCell id="oIc1xfMcri30EXBQYezS-12" value="Назад" style="text;html=1;strokeColor=#d6b656;fillColor=#fff2cc;align=center;verticalAlign=middle;whiteSpace=wrap;rounded=0;shadow=0;sketch=0;" parent="_qShVizZ1u9_w7oZcHcB-1" vertex="1">
          <mxGeometry x="402.5" y="-87.5" width="87.5" height="40" as="geometry" />
        </mxCell>
        <mxCell id="oIc1xfMcri30EXBQYezS-13" value="Создать работника" style="shape=ellipse;fillColor=#eeeeee;strokeColor=#999999;gradientColor=#cccccc;html=1;align=left;spacingLeft=4;fontSize=17;fontColor=#666666;labelPosition=right;shadow=0;rounded=0;glass=0;sketch=0;" parent="_qShVizZ1u9_w7oZcHcB-1" vertex="1">
          <mxGeometry x="552.5" y="-127.5" width="15" height="15" as="geometry" />
        </mxCell>
        <mxCell id="oIc1xfMcri30EXBQYezS-14" value="" style="icon;html=1;image=data:image/png,iVBORw0KGgoAAAANSUhEUgAAAOEAAADhCAMAAAAJbSJIAAAAeFBMVEX///8AAADt7e309PT8/Pz39/dHR0c9PT3R0dHq6upMTEzV1dUrKyvf39/KysrCwsJqamqWlpYdHR1RUVEKCgpvb2+MjIy0tLSEhIRkZGSnp6cZGRni4uInJyeioqKSkpITExO8vLx8fHxYWFgwMDCFhYWkpKQ4ODiCR2hVAAAFVUlEQVR4nO2b12KrOBCGQXTTbYq7DYn3vP8bbkCogIGUs4DD/t8dJc6MZjRFEooCAAAAAAAAAAAAAAAAAAAAAAAAAAAAAAAAAAAAAAAAAAAAAAAAAAAAAAAAvxqdnN2gyIvAPRN9aWH+Y5zidrAu2+3pdL8n9/vptN1erOhWOEsL9vcYGglLTx3GK0OiGUuL+VPIOdz/GdGO8WcfnrWlhf0+xM7LyxfUo1zK3CZLi/wt/Lx8/7J6lPcy95cW+8u4t7dvqkd5i92lRf8SQWr9SL8KKw2WFv9TQnM7rkQy/nhrhkurMIZ2HFbv7kW5S0Om5uaRdx9W8viqkfV8PcmCehuLa5HsyrBdxuhhuePmvFubVtw9Xc8L6TAGKUxZyN0jz3f8Iu6zihaLF/J8v5H/3CxeLXnoQSqbrzz6is1ENuOhNODHbFQ2tuIeWwk0DV6qdnUzqTS7ZMGHyWwmfDqWAlw2MObHWyR4SPPYy14nd2hXyUGT2K9c0mUpYz/ubmTfvGdVhtbcTHbV64uEnNCUMkCmUediNr1+5mv6ldmsvjTIQxqtl0gd+kGSaM8GnYn5FQlDNjjNtVZKdjwsPRv1QEzAS8ojitvkjWv7bYM4FaTTLjVWPPF550Yi5njLRhwSi8QdFfy20dh1Lwtn+EFmVuPhmVngy0rqzVw8iJtFxH/3Hi+YOAIhhykXIkdqwkgWzb3J5ap1kwMloRF1exS3tKOIXtFSxap+5TInD1lgn2Zyyxa3tLhVD1RDIlcBLn26kxOn++ABzPo0Xk2CE3EJNkUrrB/p3ViIRQ7qMwfJxDG9dZR/Rit4mZNECyzp2KLKerQnipN2DeJ3DdiYUXqDmj1tKyJljo2tzEzOo13SzQhBXZgkMb9B+hX8UFEMTVw7xKk740LuJ5d8OmV6MGIxuN26Q6dOuuOBUetz0cZR+R9r1Ij/dCecJlwlnnFNzmGl1kfx+BQDHCpryW/E6jDC0DTNb57mmy5K3v1sk9HlSWJTPAc5u35y577rDvlo7ac8Boc0sz5PN10EnGimWpx3Db1tQ1Nnekx14zaioKremOvp1FRxT17gDYhqzhJvAq7gta/YMKg4B3btj69LWTyeUsdI+yYbYdW5as6Q/EMusd2bhg06DXlmC0YVVFUucl5fPgWuGt3mIzJ5txGyeZ8MNO7ae0twI3vSqU3GjObWl95AS+iz972JVcxZftoNxTWNPmePB3Mhg+fE5g+Hml6HxZtk0sTIWrkkHQzchL7BBRvbeaptwn+JXg82Ek7KRndCK2rNav0lG25o/I6GnygorN1oOJwQnKxZxXmbbnGDNI3tZmQ5M/yxhslnBvIbRz1N1zAKGw5XF7/bhuufh1IsfS4gG355LJXyobrSfCjXNEFvNzNJTWPwX5m+ppHr0rjPU6eoSx3egM1Rly7RW/BubZ7eovUf5+gPc/4Dc/WHM/f4D74iNF+P31qnMaddp5GyzZzrNMp8a2383ZnX2pR51kvFbFhgvXSWNW8+MIuseU++b2ELAy60b6GM7D3RJuCv9p6uL7D3pEy4f5i/yP5hZw9YJOS/3gMWZzIW3gNW2vv4aslclXUUv38fv6J1FuPRGGhFZzGUznkaNavP5/lrOk+jdM5EbR8BkQruNZyJUrrn2i7l0V3ZuTbl6WziZr+ys4kVnfOll7WdL61Y+xnhmpWf865Z+1n9irV/b1Gx9m9mKtb+3VPNyr9doxgaKdIxU17S4hd/fyg459nzN6SHLH/VvP5T1vwdMAAAAAAAAAAAAAAAAAAAAAAAAAAAAAAAAAAAAAAAAAAAAAAAAAAAAAAA4H/Hv5fuVIRlvM8cAAAAAElFTkSuQmCC;rounded=0;shadow=0;glass=0;sketch=0;imageWidth=26;imageHeight=26;arcSize=11;absoluteArcSize=0;fillColor=none;strokeColor=none;" parent="_qShVizZ1u9_w7oZcHcB-1" vertex="1">
          <mxGeometry x="710" y="-272.5" width="50" height="20" as="geometry" />
        </mxCell>
        <mxCell id="oIc1xfMcri30EXBQYezS-15" value="" style="icon;html=1;image=data:image/png,iVBORw0KGgoAAAANSUhEUgAAAOEAAADhCAMAAAAJbSJIAAAAeFBMVEX///8AAADt7e309PT8/Pz39/dHR0c9PT3R0dHq6upMTEzV1dUrKyvf39/KysrCwsJqamqWlpYdHR1RUVEKCgpvb2+MjIy0tLSEhIRkZGSnp6cZGRni4uInJyeioqKSkpITExO8vLx8fHxYWFgwMDCFhYWkpKQ4ODiCR2hVAAAFVUlEQVR4nO2b12KrOBCGQXTTbYq7DYn3vP8bbkCogIGUs4DD/t8dJc6MZjRFEooCAAAAAAAAAAAAAAAAAAAAAAAAAAAAAAAAAAAAAAAAAAAAAAAAAAAAAAAAvxqdnN2gyIvAPRN9aWH+Y5zidrAu2+3pdL8n9/vptN1erOhWOEsL9vcYGglLTx3GK0OiGUuL+VPIOdz/GdGO8WcfnrWlhf0+xM7LyxfUo1zK3CZLi/wt/Lx8/7J6lPcy95cW+8u4t7dvqkd5i92lRf8SQWr9SL8KKw2WFv9TQnM7rkQy/nhrhkurMIZ2HFbv7kW5S0Om5uaRdx9W8viqkfV8PcmCehuLa5HsyrBdxuhhuePmvFubVtw9Xc8L6TAGKUxZyN0jz3f8Iu6zihaLF/J8v5H/3CxeLXnoQSqbrzz6is1ENuOhNODHbFQ2tuIeWwk0DV6qdnUzqTS7ZMGHyWwmfDqWAlw2MObHWyR4SPPYy14nd2hXyUGT2K9c0mUpYz/ubmTfvGdVhtbcTHbV64uEnNCUMkCmUediNr1+5mv6ldmsvjTIQxqtl0gd+kGSaM8GnYn5FQlDNjjNtVZKdjwsPRv1QEzAS8ojitvkjWv7bYM4FaTTLjVWPPF550Yi5njLRhwSi8QdFfy20dh1Lwtn+EFmVuPhmVngy0rqzVw8iJtFxH/3Hi+YOAIhhykXIkdqwkgWzb3J5ap1kwMloRF1exS3tKOIXtFSxap+5TInD1lgn2Zyyxa3tLhVD1RDIlcBLn26kxOn++ABzPo0Xk2CE3EJNkUrrB/p3ViIRQ7qMwfJxDG9dZR/Rit4mZNECyzp2KLKerQnipN2DeJ3DdiYUXqDmj1tKyJljo2tzEzOo13SzQhBXZgkMb9B+hX8UFEMTVw7xKk740LuJ5d8OmV6MGIxuN26Q6dOuuOBUetz0cZR+R9r1Ij/dCecJlwlnnFNzmGl1kfx+BQDHCpryW/E6jDC0DTNb57mmy5K3v1sk9HlSWJTPAc5u35y577rDvlo7ac8Boc0sz5PN10EnGimWpx3Db1tQ1Nnekx14zaioKremOvp1FRxT17gDYhqzhJvAq7gta/YMKg4B3btj69LWTyeUsdI+yYbYdW5as6Q/EMusd2bhg06DXlmC0YVVFUucl5fPgWuGt3mIzJ5txGyeZ8MNO7ae0twI3vSqU3GjObWl95AS+iz972JVcxZftoNxTWNPmePB3Mhg+fE5g+Hml6HxZtk0sTIWrkkHQzchL7BBRvbeaptwn+JXg82Ek7KRndCK2rNav0lG25o/I6GnygorN1oOJwQnKxZxXmbbnGDNI3tZmQ5M/yxhslnBvIbRz1N1zAKGw5XF7/bhuufh1IsfS4gG355LJXyobrSfCjXNEFvNzNJTWPwX5m+ppHr0rjPU6eoSx3egM1Rly7RW/BubZ7eovUf5+gPc/4Dc/WHM/f4D74iNF+P31qnMaddp5GyzZzrNMp8a2383ZnX2pR51kvFbFhgvXSWNW8+MIuseU++b2ELAy60b6GM7D3RJuCv9p6uL7D3pEy4f5i/yP5hZw9YJOS/3gMWZzIW3gNW2vv4aslclXUUv38fv6J1FuPRGGhFZzGUznkaNavP5/lrOk+jdM5EbR8BkQruNZyJUrrn2i7l0V3ZuTbl6WziZr+ys4kVnfOll7WdL61Y+xnhmpWf865Z+1n9irV/b1Gx9m9mKtb+3VPNyr9doxgaKdIxU17S4hd/fyg459nzN6SHLH/VvP5T1vwdMAAAAAAAAAAAAAAAAAAAAAAAAAAAAAAAAAAAAAAAAAAAAAAAAAAAAAAA4H/Hv5fuVIRlvM8cAAAAAElFTkSuQmCC;rounded=0;shadow=0;glass=0;sketch=0;imageWidth=26;imageHeight=26;arcSize=11;absoluteArcSize=0;fillColor=none;strokeColor=none;" parent="_qShVizZ1u9_w7oZcHcB-1" vertex="1">
          <mxGeometry x="710" y="-212.5" width="50" height="20" as="geometry" />
        </mxCell>
        <mxCell id="oIc1xfMcri30EXBQYezS-21" value="" style="endArrow=classic;html=1;entryX=-0.006;entryY=0.273;entryDx=0;entryDy=0;entryPerimeter=0;exitX=1;exitY=0.5;exitDx=0;exitDy=0;" parent="_qShVizZ1u9_w7oZcHcB-1" source="q81TEAvMw46rpjZFN7cc-7" target="oIc1xfMcri30EXBQYezS-0" edge="1">
          <mxGeometry width="50" height="50" relative="1" as="geometry">
            <mxPoint x="-20" y="-192" as="sourcePoint" />
            <mxPoint x="480" y="50" as="targetPoint" />
          </mxGeometry>
        </mxCell>
        <mxCell id="oIc1xfMcri30EXBQYezS-23" value="Регистрация" style="edgeLabel;html=1;align=center;verticalAlign=middle;resizable=0;points=[];" parent="oIc1xfMcri30EXBQYezS-21" vertex="1" connectable="0">
          <mxGeometry x="0.4515" y="-1" relative="1" as="geometry">
            <mxPoint y="-1" as="offset" />
          </mxGeometry>
        </mxCell>
        <mxCell id="oIc1xfMcri30EXBQYezS-22" value="" style="endArrow=classic;html=1;entryX=1;entryY=0.912;entryDx=0;entryDy=0;entryPerimeter=0;" parent="_qShVizZ1u9_w7oZcHcB-1" target="q81TEAvMw46rpjZFN7cc-0" edge="1">
          <mxGeometry width="50" height="50" relative="1" as="geometry">
            <mxPoint x="402.5" y="-75.49" as="sourcePoint" />
            <mxPoint x="814.0600000000004" y="-87.50249999999981" as="targetPoint" />
          </mxGeometry>
        </mxCell>
        <mxCell id="oIc1xfMcri30EXBQYezS-80" value="Вход" style="edgeLabel;html=1;align=center;verticalAlign=middle;resizable=0;points=[];" parent="oIc1xfMcri30EXBQYezS-22" vertex="1" connectable="0">
          <mxGeometry x="-0.1638" y="2" relative="1" as="geometry">
            <mxPoint as="offset" />
          </mxGeometry>
        </mxCell>
        <mxCell id="oIc1xfMcri30EXBQYezS-45" value="" style="endArrow=classic;html=1;exitX=1;exitY=0.5;exitDx=0;exitDy=0;" parent="_qShVizZ1u9_w7oZcHcB-1" source="oIc1xfMcri30EXBQYezS-2" edge="1">
          <mxGeometry width="50" height="50" relative="1" as="geometry">
            <mxPoint x="1240" y="-190" as="sourcePoint" />
            <mxPoint x="1330" y="-230" as="targetPoint" />
          </mxGeometry>
        </mxCell>
        <mxCell id="oIc1xfMcri30EXBQYezS-78" value="Создать организацию" style="edgeLabel;html=1;align=center;verticalAlign=middle;resizable=0;points=[];" parent="oIc1xfMcri30EXBQYezS-45" vertex="1" connectable="0">
          <mxGeometry x="0.1168" y="-3" relative="1" as="geometry">
            <mxPoint as="offset" />
          </mxGeometry>
        </mxCell>
        <mxCell id="oIc1xfMcri30EXBQYezS-61" value="Создать организацию" style="strokeWidth=1;shadow=0;dashed=0;align=center;html=1;shape=mxgraph.mockup.containers.window;align=left;verticalAlign=top;spacingLeft=8;strokeColor2=#008cff;strokeColor3=#c4c4c4;mainText=;fontSize=17;labelBackgroundColor=none;rounded=0;glass=0;sketch=0;fillColor=#dae8fc;strokeColor=#6c8ebf;" parent="_qShVizZ1u9_w7oZcHcB-1" vertex="1">
          <mxGeometry x="1331.5" y="-470" width="547.5" height="490" as="geometry" />
        </mxCell>
        <mxCell id="oIc1xfMcri30EXBQYezS-62" style="edgeStyle=orthogonalEdgeStyle;rounded=0;orthogonalLoop=1;jettySize=auto;html=1;exitX=0.5;exitY=1;exitDx=0;exitDy=0;" parent="_qShVizZ1u9_w7oZcHcB-1" edge="1">
          <mxGeometry relative="1" as="geometry">
            <mxPoint x="1542.5" y="-2.5" as="sourcePoint" />
            <mxPoint x="1542.5" y="-2.5" as="targetPoint" />
          </mxGeometry>
        </mxCell>
        <mxCell id="oIc1xfMcri30EXBQYezS-63" value="Далее" style="text;html=1;strokeColor=#d6b656;fillColor=#fff2cc;align=center;verticalAlign=middle;whiteSpace=wrap;rounded=0;shadow=0;sketch=0;" parent="_qShVizZ1u9_w7oZcHcB-1" vertex="1">
          <mxGeometry x="1777.5" y="-45" width="87.5" height="40" as="geometry" />
        </mxCell>
        <mxCell id="oIc1xfMcri30EXBQYezS-64" value="" style="strokeWidth=1;shadow=0;dashed=0;align=center;html=1;shape=mxgraph.mockup.text.textBox;align=left;fontSize=17;spacingLeft=4;spacingTop=-3;strokeColor=#82b366;mainText=;sketch=0;fillColor=#d5e8d4;" parent="_qShVizZ1u9_w7oZcHcB-1" vertex="1">
          <mxGeometry x="1507.5" y="-295" width="195" height="30" as="geometry" />
        </mxCell>
        <mxCell id="oIc1xfMcri30EXBQYezS-65" value="Электронный адрес" style="text;html=1;strokeColor=none;fillColor=none;align=center;verticalAlign=middle;whiteSpace=wrap;rounded=0;shadow=1;glass=0;sketch=0;" parent="_qShVizZ1u9_w7oZcHcB-1" vertex="1">
          <mxGeometry x="1480" y="-375" width="160" height="20" as="geometry" />
        </mxCell>
        <mxCell id="oIc1xfMcri30EXBQYezS-66" value="" style="strokeWidth=1;shadow=0;dashed=0;align=center;html=1;shape=mxgraph.mockup.text.textBox;align=left;fontSize=17;spacingLeft=4;spacingTop=-3;strokeColor=#82b366;mainText=;sketch=0;fillColor=#d5e8d4;" parent="_qShVizZ1u9_w7oZcHcB-1" vertex="1">
          <mxGeometry x="1506.25" y="-425" width="195" height="30" as="geometry" />
        </mxCell>
        <mxCell id="oIc1xfMcri30EXBQYezS-67" value="" style="strokeWidth=1;shadow=0;dashed=0;align=center;html=1;shape=mxgraph.mockup.text.textBox;align=left;fontSize=17;spacingLeft=4;spacingTop=-3;strokeColor=#82b366;mainText=;sketch=0;fillColor=#d5e8d4;" parent="_qShVizZ1u9_w7oZcHcB-1" vertex="1">
          <mxGeometry x="1507.5" y="-355" width="193.75" height="30" as="geometry" />
        </mxCell>
        <mxCell id="oIc1xfMcri30EXBQYezS-68" value="Телефон" style="text;html=1;strokeColor=none;fillColor=none;align=center;verticalAlign=middle;whiteSpace=wrap;rounded=0;shadow=1;glass=0;sketch=0;" parent="_qShVizZ1u9_w7oZcHcB-1" vertex="1">
          <mxGeometry x="1432.5" y="-315" width="200" height="20" as="geometry" />
        </mxCell>
        <mxCell id="oIc1xfMcri30EXBQYezS-69" value="Название" style="text;html=1;strokeColor=none;fillColor=none;align=center;verticalAlign=middle;whiteSpace=wrap;rounded=0;shadow=1;glass=0;sketch=0;" parent="_qShVizZ1u9_w7oZcHcB-1" vertex="1">
          <mxGeometry x="1447.5" y="-445" width="170" height="20" as="geometry" />
        </mxCell>
        <mxCell id="oIc1xfMcri30EXBQYezS-70" value="Назад" style="text;html=1;strokeColor=#d6b656;fillColor=#fff2cc;align=center;verticalAlign=middle;whiteSpace=wrap;rounded=0;shadow=0;sketch=0;" parent="_qShVizZ1u9_w7oZcHcB-1" vertex="1">
          <mxGeometry x="1340" y="-45" width="87.5" height="40" as="geometry" />
        </mxCell>
        <mxCell id="oIc1xfMcri30EXBQYezS-71" value="" style="icon;html=1;image=data:image/png,iVBORw0KGgoAAAANSUhEUgAAAcQAAAHECAYAAACnX1ofAAAABmJLR0QA/wD/AP+gvaeTAAAJPElEQVR4nO3dsapmVx2H4XfCKdSxsUgtibcgFmJnIQjegAZsxc5U4h2ksbQUgqWVZSzEIq3YpI1egIWCIYgpxiIzJpmcZM45s/dea+39PHA43f/7dS+sZhcAAAAAAAAAAAAAAAAAAAAAAAAAAAAAAAAAAAAAAAAAPMSj0QMG+331/dEj4ASeVG9Wb48eAg91M3rAYF+vvjF6BJzEb5/+F0WW9MroAcBpvNLHUfzp6CHwEIIIbEkUWZYgAlsTRZYkiMAeRJHlCCKwF1FkKYII7EkUWYYgAnsTRZYgiMARRJHpCSJwFFFkaoIIHEkUmZYgAkcTRaYkiMAIosh0BBEYRRSZiiACI4ki0xBEYDRRZAqCCMxAFBnu6h8I3sqb1R9Gj4AN/bH61sG/+SyK5SPDDCCI2/hH9bfRI2BD/x30u6LIMJ5Mgdl4PmUIQQRmJIocThCBWYkihxJEYGaiyGEEEZidKHIIQQRWIIrsThCBVYgiuxJEYCWiyG4EEViNKLILQQRWJIpsThCBVYkimxJEYE+/qv69431RZDOCCOzp3eqHiSILEERgb6LIEgQROIIoMj1BBI4iikxNEIEjiSLTEkTgaKLIlAQRGEEUmY4gAqOIIlMRRGAkUWQaggiMJopMQRCBGYgiwwkiMAtRZChBBGYiigwjiMBsRJEhBBGYkShyOEEEZiWKHEoQgZmJIocRRGB2osghBBFYgSiyO0EEViGK7EoQgZWIIrsRRGA1osguBBFYkSiyOUEEViWKbEoQgZWJIpsRRGB1osgmBBE4A1HkpQkicBaiyEsRROBMRJEHE0TgbESRBxFE4IxEkXsTROCsRJF7EUTgzESROxNE4OxEkTsRROAKRJEXEkTgKkSRLyWIwJWIIl9IEIGrEUVuJYjAFYkinyOIwFWJIp8hiMCViSL/J4jA1YkilSAClCiSIAI8I4oXJ4gAnxDFCxNEgM8SxYsSRIDPE8ULEkSA24nixQgiwBcTxQsRRIAvJ4oXIYgALyaKFyCIAHcjiicniAB3J4onJogA9yOKJyWIAPcniickiAAPI4onI4gADyeKJyKIAC9HFE9CEAFeniiegCACbEMUFyeIANsRxYUJIsC2RHFRggiwPVFckCAC7EMUFyOIAPsRxYUIIsC+RHERggiwP1FcgCACHEMUJyeIAMcRxYkJIsCxRHFSgghwPFGckCACjCGKkxFEgHFEcSKCCDCWKE5CEAHGE8UJCCLAHERxsJvRA4BT+3H13dEjFvPn6kc73n8Wxaq3d/yd5QgisKefjR7ArUTxFp5MAa7J8+lzBBHgukTxUwQR4NpE8SlBBOBZFN8YPWQkQQSgPu7BT0aPGEkQASBBBIBKEAGgEkQAqAQRACpBBIBKEAGgEkQAqAQRACpBBIBKEAGg8oFg4HbvVO+NHsGdfbP6zugRqxNE4Da/GD2Ae3mj+t3oEavzZAoACSIAVIIIAJUgAkAliABQCSIAVIIIAJUgAkAliABQCSIAVIIIAJUgAkAliABQCSIAVIIIAJUgAkAliABQCSIAVIIIAJUgAkAliABQCSIAVIIIAJUgAkAliABQCSIAVIIIAJUgAkAliABQCSIAVIIIAJUgAkAliABQCSIAVIIIAJUgAkAliABQCSIAVIIIAJUgAkAliABQCSIAVIIIAFXdjB4AJ/eoem2jW3+vnmx0C3iOIMK+vlq9v9Gtx9WHG90CnuPJFAASRACoBBEAKkEEgEoQAaASRACoBBEAKkEEgEoQAaASRACoBBEAKkEEgEoQAaASRACoBBEAKkEEgEoQAaASRACoBBEAKkEEgEoQAaASRACoBBEAKkEEgEoQAaASRACoBBEAKkEEgEoQAaASRACoBBEAKkEEgEoQAaASRACoBBEAKkEEgEoQAaASRACoBBEAKkEEgEoQAaASRACoBBEAKkEEgEoQAaASRACoBBEAKkEEgEoQAaASRACoBBEAKkEEgEoQAaASRACoBBEAKkEEgEoQAaASRACoBBEAKkEEgEoQAaASRACo6mb0AC7hB9VvRo8Y5NGGt96rnmx4byU/r94ZPYJzE0SO8Lh6ffSIE3ht9ICBHo8ewPl5MgWABBEAKkEEgEoQAaASRACoBBEAKkEEgEoQAaASRACoBBEAKkEEgEoQAaASRACoBBEAKkEEgEoQAaDygWCO8afq26NHDPKV6t2Nbn2v+s9Gt1bz/ugBnJ8gcoR/VX8ZPWKQr21466/VhxveAz7FkykAJIgAUAkiAFSCCACVIAJAJYgAUAkiAFSCCACVIAJAJYgAUAkiAFSCCACVIAJAJYgAUAkiAFSCCACVIAJAJYgAUAkiAFSCCACVIAJAJYgAUAkiAFSCCACVIAJAJYgAUAkiAFSCCACVIAJAJYgAUAkiAFSCCACVIAJAJYgAUAkiAFSCCACVIAJAJYgAUAkiAFSCCACVIAJAJYgAUAkiAFSCCACVIAJAJYgAUAkiAFSCCACVIAJAJYgAUAkiAFSCCACVIAJAJYgAUAkiAFSCCACVIAJAJYgAUAkiAFSCCACVIAJAVTejB8DJfVT9csNbwE4EEfb1UfXW6BHAi3kyBYAEEQAqQQSAShABoBJEAKgEEQAqQQSAShABoBJEAKgEEQAqQQSAShABoBJEAKgEEQAqQQSAShABoBJEAKgEEQAqQQSAShABoBJEAKgEEQAqQQSAShABoBJEAKgEEQAqQQSAShABoBJEAKgEEQAqQQSAShABoBJEAKgEEQAqQQSAShABoBJEAKgEEQAqQQSAShABoBJEAKgEEQAqQQSAShABoBJEAKgEEQAqQQSAShABoBJEAKgEEQAqQQSAShABoBJEAKgEEQAqQQSAShABoBJEAKgEEQAqQQSAShABoBJEAKgEEQAqQQSAShABoBJEAKgEEQAqQQSAShABoBJEAKgEEQAqQQSAShABoBJEAKgEEQAqQQSAShABoBJEAKgEEQAqQQSAqm5GDziJV6vXR48ALuvV0QPOQBC38eunfwAsypMpACSIAFAJIgBUgggAlSACQCWIAFAJIgBUgggAlSACQCWIAFAJIgBUgggAlSACQCWIAFAJIgBUgggAlQ8Ef1D9c/QIgEl8MHoAAAAAAAAAAAAAAAAAAAAAAAAAAAAAAAAAAAAAAAAAAKznf8EsNDgA5mJtAAAAAElFTkSuQmCC;" parent="_qShVizZ1u9_w7oZcHcB-1" vertex="1">
          <mxGeometry x="1521.25" y="-195" width="168" height="168" as="geometry" />
        </mxCell>
        <mxCell id="oIc1xfMcri30EXBQYezS-72" value="Изображение организации" style="text;html=1;strokeColor=none;fillColor=none;align=center;verticalAlign=middle;whiteSpace=wrap;rounded=0;shadow=1;glass=0;sketch=0;" parent="_qShVizZ1u9_w7oZcHcB-1" vertex="1">
          <mxGeometry x="1427.5" y="-235" width="200" height="20" as="geometry" />
        </mxCell>
        <mxCell id="oIc1xfMcri30EXBQYezS-73" value="Открыть" style="text;html=1;strokeColor=#d6b656;fillColor=#fff2cc;align=center;verticalAlign=middle;whiteSpace=wrap;rounded=0;shadow=0;sketch=0;" parent="_qShVizZ1u9_w7oZcHcB-1" vertex="1">
          <mxGeometry x="1627.5" y="-237.5" width="112.5" height="25" as="geometry" />
        </mxCell>
        <mxCell id="oIc1xfMcri30EXBQYezS-74" value="" style="endArrow=classic;html=1;exitX=1;exitY=0;exitDx=0;exitDy=0;" parent="_qShVizZ1u9_w7oZcHcB-1" source="oIc1xfMcri30EXBQYezS-73" edge="1">
          <mxGeometry width="50" height="50" relative="1" as="geometry">
            <mxPoint x="1547.5" y="-185" as="sourcePoint" />
            <mxPoint x="2177.5" y="-495" as="targetPoint" />
          </mxGeometry>
        </mxCell>
        <mxCell id="oIc1xfMcri30EXBQYezS-79" value="Форма выбора файла" style="edgeLabel;html=1;align=center;verticalAlign=middle;resizable=0;points=[];" parent="oIc1xfMcri30EXBQYezS-74" vertex="1" connectable="0">
          <mxGeometry x="-0.093" y="2" relative="1" as="geometry">
            <mxPoint x="62" y="-39" as="offset" />
          </mxGeometry>
        </mxCell>
        <mxCell id="oIc1xfMcri30EXBQYezS-75" value="Форма открытия изображения&lt;br&gt;" style="strokeWidth=1;shadow=0;dashed=0;align=center;html=1;shape=mxgraph.mockup.containers.window;align=left;verticalAlign=top;spacingLeft=8;strokeColor2=#008cff;strokeColor3=#c4c4c4;mainText=;fontSize=17;labelBackgroundColor=none;rounded=0;glass=0;sketch=0;fillColor=#dae8fc;strokeColor=#6c8ebf;" parent="_qShVizZ1u9_w7oZcHcB-1" vertex="1">
          <mxGeometry x="2177.5" y="-725" width="500" height="440" as="geometry" />
        </mxCell>
        <mxCell id="oIc1xfMcri30EXBQYezS-76" value="" style="endArrow=classic;html=1;exitX=0;exitY=0.5;exitDx=0;exitDy=0;entryX=1.004;entryY=0.639;entryDx=0;entryDy=0;entryPerimeter=0;" parent="_qShVizZ1u9_w7oZcHcB-1" source="oIc1xfMcri30EXBQYezS-70" target="oIc1xfMcri30EXBQYezS-0" edge="1">
          <mxGeometry width="50" height="50" relative="1" as="geometry">
            <mxPoint x="907.5" y="-57.5" as="sourcePoint" />
            <mxPoint x="1150" y="-80" as="targetPoint" />
          </mxGeometry>
        </mxCell>
        <mxCell id="oIc1xfMcri30EXBQYezS-77" value="Регистрация" style="edgeLabel;html=1;align=center;verticalAlign=middle;resizable=0;points=[];rotation=0;" parent="oIc1xfMcri30EXBQYezS-76" vertex="1" connectable="0">
          <mxGeometry x="-0.4" y="-1" relative="1" as="geometry">
            <mxPoint x="1" as="offset" />
          </mxGeometry>
        </mxCell>
        <mxCell id="oIc1xfMcri30EXBQYezS-81" value="" style="endArrow=classic;html=1;exitX=1;exitY=0.25;exitDx=0;exitDy=0;entryX=-0.001;entryY=0.056;entryDx=0;entryDy=0;entryPerimeter=0;" parent="_qShVizZ1u9_w7oZcHcB-1" source="q81TEAvMw46rpjZFN7cc-2" target="_qShVizZ1u9_w7oZcHcB-2" edge="1">
          <mxGeometry width="50" height="50" relative="1" as="geometry">
            <mxPoint x="510" y="30" as="sourcePoint" />
            <mxPoint x="560" y="-20" as="targetPoint" />
          </mxGeometry>
        </mxCell>
        <mxCell id="8pMZffzJyvuaPfuMnXEX-0" value="Просмотр товаров" style="edgeLabel;html=1;align=center;verticalAlign=middle;resizable=0;points=[];" vertex="1" connectable="0" parent="oIc1xfMcri30EXBQYezS-81">
          <mxGeometry x="0.4507" y="-3" relative="1" as="geometry">
            <mxPoint as="offset" />
          </mxGeometry>
        </mxCell>
        <mxCell id="oIc1xfMcri30EXBQYezS-87" value="" style="rounded=0;whiteSpace=wrap;html=1;" parent="_qShVizZ1u9_w7oZcHcB-1" vertex="1">
          <mxGeometry x="940" y="560" width="150" height="120" as="geometry" />
        </mxCell>
        <mxCell id="oIc1xfMcri30EXBQYezS-88" value="" style="rounded=0;whiteSpace=wrap;html=1;" parent="_qShVizZ1u9_w7oZcHcB-1" vertex="1">
          <mxGeometry x="1135" y="560" width="150" height="120" as="geometry" />
        </mxCell>
        <mxCell id="oIc1xfMcri30EXBQYezS-89" value="" style="rounded=0;whiteSpace=wrap;html=1;" parent="_qShVizZ1u9_w7oZcHcB-1" vertex="1">
          <mxGeometry x="1330" y="560" width="150" height="120" as="geometry" />
        </mxCell>
        <mxCell id="oIc1xfMcri30EXBQYezS-90" value="" style="rounded=0;whiteSpace=wrap;html=1;" parent="_qShVizZ1u9_w7oZcHcB-1" vertex="1">
          <mxGeometry x="1530" y="560" width="150" height="120" as="geometry" />
        </mxCell>
        <mxCell id="oIc1xfMcri30EXBQYezS-91" value="" style="rounded=0;whiteSpace=wrap;html=1;" parent="_qShVizZ1u9_w7oZcHcB-1" vertex="1">
          <mxGeometry x="940" y="765" width="150" height="120" as="geometry" />
        </mxCell>
        <mxCell id="oIc1xfMcri30EXBQYezS-92" value="" style="rounded=0;whiteSpace=wrap;html=1;" parent="_qShVizZ1u9_w7oZcHcB-1" vertex="1">
          <mxGeometry x="1135" y="765" width="150" height="120" as="geometry" />
        </mxCell>
        <mxCell id="oIc1xfMcri30EXBQYezS-93" value="" style="rounded=0;whiteSpace=wrap;html=1;" parent="_qShVizZ1u9_w7oZcHcB-1" vertex="1">
          <mxGeometry x="1330" y="765" width="150" height="120" as="geometry" />
        </mxCell>
        <mxCell id="oIc1xfMcri30EXBQYezS-94" value="" style="rounded=0;whiteSpace=wrap;html=1;" parent="_qShVizZ1u9_w7oZcHcB-1" vertex="1">
          <mxGeometry x="1530" y="765" width="150" height="120" as="geometry" />
        </mxCell>
        <mxCell id="oIc1xfMcri30EXBQYezS-95" value="Изображение" style="text;html=1;strokeColor=none;fillColor=none;align=center;verticalAlign=middle;whiteSpace=wrap;rounded=0;" parent="_qShVizZ1u9_w7oZcHcB-1" vertex="1">
          <mxGeometry x="995" y="610" width="40" height="20" as="geometry" />
        </mxCell>
        <mxCell id="oIc1xfMcri30EXBQYezS-96" value="Описание товара" style="text;html=1;strokeColor=none;fillColor=none;align=center;verticalAlign=middle;whiteSpace=wrap;rounded=0;" parent="_qShVizZ1u9_w7oZcHcB-1" vertex="1">
          <mxGeometry x="940" y="690" width="150" height="20" as="geometry" />
        </mxCell>
        <mxCell id="oIc1xfMcri30EXBQYezS-100" value="" style="verticalLabelPosition=bottom;shadow=0;dashed=0;align=center;html=1;verticalAlign=top;strokeWidth=1;shape=mxgraph.mockup.navigation.scrollBar;strokeColor=#999999;barPos=20;fillColor2=#99ddff;strokeColor2=none;direction=north;" parent="_qShVizZ1u9_w7oZcHcB-1" vertex="1">
          <mxGeometry x="1700" y="530" width="20" height="570" as="geometry" />
        </mxCell>
        <mxCell id="8pMZffzJyvuaPfuMnXEX-1" value="" style="endArrow=classic;html=1;exitX=1;exitY=0.25;exitDx=0;exitDy=0;entryX=0.877;entryY=0;entryDx=0;entryDy=0;entryPerimeter=0;" edge="1" parent="_qShVizZ1u9_w7oZcHcB-1" target="_qShVizZ1u9_w7oZcHcB-2">
          <mxGeometry width="50" height="50" relative="1" as="geometry">
            <mxPoint x="1820" y="-5" as="sourcePoint" />
            <mxPoint x="2538.94" y="595.3599999999997" as="targetPoint" />
          </mxGeometry>
        </mxCell>
        <mxCell id="8pMZffzJyvuaPfuMnXEX-2" value="Просмотр товаров" style="edgeLabel;html=1;align=center;verticalAlign=middle;resizable=0;points=[];" vertex="1" connectable="0" parent="8pMZffzJyvuaPfuMnXEX-1">
          <mxGeometry x="0.4507" y="-3" relative="1" as="geometry">
            <mxPoint as="offset" />
          </mxGeometry>
        </mxCell>
        <mxCell id="8pMZffzJyvuaPfuMnXEX-3" value="" style="endArrow=classic;html=1;exitX=1;exitY=0.25;exitDx=0;exitDy=0;entryX=0.25;entryY=0;entryDx=0;entryDy=0;" edge="1" parent="_qShVizZ1u9_w7oZcHcB-1" target="_qShVizZ1u9_w7oZcHcB-2">
          <mxGeometry width="50" height="50" relative="1" as="geometry">
            <mxPoint x="850.53" y="-47.5" as="sourcePoint" />
            <mxPoint x="1569.47" y="552.8599999999997" as="targetPoint" />
          </mxGeometry>
        </mxCell>
        <mxCell id="8pMZffzJyvuaPfuMnXEX-4" value="Просмотр товаров" style="edgeLabel;html=1;align=center;verticalAlign=middle;resizable=0;points=[];" vertex="1" connectable="0" parent="8pMZffzJyvuaPfuMnXEX-3">
          <mxGeometry x="0.4507" y="-3" relative="1" as="geometry">
            <mxPoint as="offset" />
          </mxGeometry>
        </mxCell>
      </root>
    </mxGraphModel>
  </diagram>
</mxfile>
